<svg width="119" height="119" viewBox="0 0 119 119" fill="none" xmlns="http://www.w3.org/2000/svg">
<path d="M4.79561 92.758C6.61961 92.758 7.53161 92.134 7.53161 90.886C7.53161 90.502 7.44761 90.178 7.27961 89.914C7.12361 89.638 6.90761 89.404 6.63161 89.212C6.35561 89.008 6.03761 88.834 5.67761 88.69C5.32961 88.546 4.95761 88.402 4.56161 88.258C4.10561 88.102 3.67361 87.928 3.26561 87.736C2.85761 87.532 2.50361 87.298 2.20361 87.034C1.90361 86.758 1.66361 86.434 1.48361 86.062C1.31561 85.69 1.23161 85.24 1.23161 84.712C1.23161 83.62 1.60361 82.768 2.34761 82.156C3.09161 81.544 4.11761 81.238 5.42561 81.238C6.18161 81.238 6.86561 81.322 7.47761 81.49C8.10161 81.646 8.55761 81.82 8.84561 82.012L8.28761 83.434C8.03561 83.278 7.65761 83.128 7.15361 82.984C6.66161 82.828 6.08561 82.75 5.42561 82.75C5.08961 82.75 4.77761 82.786 4.48961 82.858C4.20161 82.93 3.94961 83.038 3.73361 83.182C3.51761 83.326 3.34361 83.512 3.21161 83.74C3.09161 83.956 3.03161 84.214 3.03161 84.514C3.03161 84.85 3.09761 85.132 3.22961 85.36C3.36161 85.588 3.54761 85.792 3.78761 85.972C4.02761 86.14 4.30361 86.296 4.61561 86.44C4.93961 86.584 5.29361 86.728 5.67761 86.872C6.21761 87.088 6.70961 87.304 7.15361 87.52C7.60961 87.736 7.99961 87.994 8.32361 88.294C8.65961 88.594 8.91761 88.954 9.09761 89.374C9.27761 89.782 9.36761 90.28 9.36761 90.868C9.36761 91.96 8.96561 92.8 8.16161 93.388C7.36961 93.976 6.24761 94.27 4.79561 94.27C4.30361 94.27 3.84761 94.234 3.42761 94.162C3.01961 94.102 2.65361 94.03 2.32961 93.946C2.00561 93.85 1.72361 93.754 1.48361 93.658C1.25561 93.55 1.07561 93.46 0.943609 93.388L1.46561 91.948C1.74161 92.104 2.16161 92.278 2.72561 92.47C3.28961 92.662 3.97961 92.758 4.79561 92.758ZM14.7897 81.4C16.5417 81.4 17.8857 81.736 18.8217 82.408C19.7697 83.068 20.2437 84.058 20.2437 85.378C20.2437 86.098 20.1117 86.716 19.8477 87.232C19.5957 87.736 19.2237 88.15 18.7317 88.474C18.2517 88.786 17.6637 89.014 16.9677 89.158C16.2717 89.302 15.4857 89.374 14.6097 89.374H13.2237V94H11.4777V81.706C11.9697 81.586 12.5157 81.508 13.1157 81.472C13.7277 81.424 14.2857 81.4 14.7897 81.4ZM14.9337 82.93C14.1897 82.93 13.6197 82.948 13.2237 82.984V87.88H14.5377C15.1377 87.88 15.6777 87.844 16.1577 87.772C16.6377 87.688 17.0397 87.556 17.3637 87.376C17.6997 87.184 17.9577 86.926 18.1377 86.602C18.3177 86.278 18.4077 85.864 18.4077 85.36C18.4077 84.88 18.3117 84.484 18.1197 84.172C17.9397 83.86 17.6877 83.614 17.3637 83.434C17.0517 83.242 16.6857 83.11 16.2657 83.038C15.8457 82.966 15.4017 82.93 14.9337 82.93ZM22.4289 94V81.526H30.0429V83.02H24.1749V86.728H29.3949V88.186H24.1749V92.506H30.4929V94H22.4289ZM37.5663 94.27C36.6903 94.27 35.8923 94.126 35.1723 93.838C34.4523 93.55 33.8343 93.13 33.3183 92.578C32.8023 92.026 32.4003 91.348 32.1123 90.544C31.8363 89.728 31.6983 88.798 31.6983 87.754C31.6983 86.71 31.8543 85.786 32.1663 84.982C32.4903 84.166 32.9223 83.482 33.4623 82.93C34.0023 82.378 34.6323 81.958 35.3523 81.67C36.0723 81.382 36.8403 81.238 37.6563 81.238C38.1723 81.238 38.6343 81.274 39.0423 81.346C39.4623 81.418 39.8223 81.502 40.1223 81.598C40.4343 81.694 40.6863 81.79 40.8783 81.886C41.0703 81.982 41.2023 82.054 41.2743 82.102L40.7703 83.542C40.6623 83.47 40.5063 83.392 40.3023 83.308C40.0983 83.224 39.8643 83.14 39.6003 83.056C39.3483 82.972 39.0663 82.906 38.7543 82.858C38.4543 82.798 38.1483 82.768 37.8363 82.768C37.1763 82.768 36.5823 82.882 36.0543 83.11C35.5263 83.338 35.0763 83.668 34.7043 84.1C34.3323 84.532 34.0443 85.06 33.8403 85.684C33.6483 86.296 33.5523 86.986 33.5523 87.754C33.5523 88.498 33.6363 89.176 33.8043 89.788C33.9843 90.4 34.2483 90.928 34.5963 91.372C34.9443 91.804 35.3763 92.14 35.8923 92.38C36.4203 92.62 37.0323 92.74 37.7283 92.74C38.5323 92.74 39.1983 92.656 39.7263 92.488C40.2543 92.32 40.6503 92.17 40.9143 92.038L41.3643 93.478C41.2803 93.538 41.1303 93.616 40.9143 93.712C40.6983 93.796 40.4283 93.88 40.1043 93.964C39.7803 94.048 39.4023 94.12 38.9703 94.18C38.5383 94.24 38.0703 94.27 37.5663 94.27ZM43.3644 81.526H45.1104V94H43.3644V81.526ZM56.5324 94C56.3284 93.46 56.1364 92.932 55.9564 92.416C55.7764 91.888 55.5904 91.354 55.3984 90.814H49.7464L48.6124 94H46.7944C47.2744 92.68 47.7244 91.462 48.1444 90.346C48.5644 89.218 48.9724 88.15 49.3684 87.142C49.7764 86.134 50.1784 85.174 50.5744 84.262C50.9704 83.338 51.3844 82.426 51.8164 81.526H53.4184C53.8504 82.426 54.2644 83.338 54.6604 84.262C55.0564 85.174 55.4524 86.134 55.8484 87.142C56.2564 88.15 56.6704 89.218 57.0904 90.346C57.5104 91.462 57.9604 92.68 58.4404 94H56.5324ZM54.8944 89.374C54.5104 88.33 54.1264 87.322 53.7424 86.35C53.3704 85.366 52.9804 84.424 52.5724 83.524C52.1524 84.424 51.7504 85.366 51.3664 86.35C50.9944 87.322 50.6224 88.33 50.2504 89.374H54.8944ZM67.6399 92.488V94H60.1339V81.526H61.8799V92.488H67.6399ZM75.0659 92.272C74.9459 91.984 74.7839 91.618 74.5799 91.174C74.3879 90.73 74.1779 90.25 73.9499 89.734C73.7219 89.218 73.4759 88.69 73.2119 88.15C72.9599 87.598 72.7199 87.082 72.4919 86.602C72.2639 86.11 72.0479 85.672 71.8439 85.288C71.6519 84.904 71.4959 84.61 71.3759 84.406C71.2439 85.822 71.1359 87.358 71.0519 89.014C70.9679 90.658 70.8959 92.32 70.8359 94H69.1259C69.1739 92.92 69.2279 91.834 69.2879 90.742C69.3479 89.638 69.4139 88.558 69.4859 87.502C69.5699 86.434 69.6539 85.396 69.7379 84.388C69.8339 83.38 69.9359 82.426 70.0439 81.526H71.5739C71.8979 82.054 72.2459 82.678 72.6179 83.398C72.9899 84.118 73.3619 84.874 73.7339 85.666C74.1059 86.446 74.4659 87.232 74.8139 88.024C75.1619 88.804 75.4799 89.518 75.7679 90.166C76.0559 89.518 76.3739 88.804 76.7219 88.024C77.0699 87.232 77.4299 86.446 77.8019 85.666C78.1739 84.874 78.5459 84.118 78.9179 83.398C79.2899 82.678 79.6379 82.054 79.9619 81.526H81.4919C81.8999 85.546 82.2059 89.704 82.4099 94H80.6999C80.6399 92.32 80.5679 90.658 80.4839 89.014C80.3999 87.358 80.2919 85.822 80.1599 84.406C80.0399 84.61 79.8779 84.904 79.6739 85.288C79.4819 85.672 79.2719 86.11 79.0439 86.602C78.8159 87.082 78.5699 87.598 78.3059 88.15C78.0539 88.69 77.8139 89.218 77.5859 89.734C77.3579 90.25 77.1419 90.73 76.9379 91.174C76.7459 91.618 76.5899 91.984 76.4699 92.272H75.0659ZM93.4816 94C93.2776 93.46 93.0856 92.932 92.9056 92.416C92.7256 91.888 92.5396 91.354 92.3476 90.814H86.6956L85.5616 94H83.7436C84.2236 92.68 84.6736 91.462 85.0936 90.346C85.5136 89.218 85.9216 88.15 86.3176 87.142C86.7256 86.134 87.1276 85.174 87.5236 84.262C87.9196 83.338 88.3336 82.426 88.7656 81.526H90.3676C90.7996 82.426 91.2136 83.338 91.6096 84.262C92.0056 85.174 92.4016 86.134 92.7976 87.142C93.2056 88.15 93.6196 89.218 94.0396 90.346C94.4596 91.462 94.9096 92.68 95.3896 94H93.4816ZM91.8436 89.374C91.4596 88.33 91.0756 87.322 90.6916 86.35C90.3196 85.366 89.9296 84.424 89.5216 83.524C89.1016 84.424 88.6996 85.366 88.3156 86.35C87.9436 87.322 87.5716 88.33 87.1996 89.374H91.8436ZM107.325 87.754C107.325 88.834 107.157 89.776 106.821 90.58C106.485 91.372 106.011 92.032 105.399 92.56C104.787 93.076 104.055 93.466 103.203 93.73C102.351 93.982 101.415 94.108 100.395 94.108C99.8912 94.108 99.3332 94.084 98.7212 94.036C98.1212 94 97.5752 93.922 97.0832 93.802V81.706C97.5752 81.586 98.1212 81.508 98.7212 81.472C99.3332 81.424 99.8912 81.4 100.395 81.4C101.415 81.4 102.351 81.532 103.203 81.796C104.055 82.048 104.787 82.438 105.399 82.966C106.011 83.482 106.485 84.142 106.821 84.946C107.157 85.738 107.325 86.674 107.325 87.754ZM100.539 92.578C102.195 92.578 103.431 92.158 104.247 91.318C105.063 90.466 105.471 89.278 105.471 87.754C105.471 86.23 105.063 85.048 104.247 84.208C103.431 83.356 102.195 82.93 100.539 82.93C100.047 82.93 99.6632 82.936 99.3872 82.948C99.1232 82.96 98.9372 82.972 98.8292 82.984V92.524C98.9372 92.536 99.1232 92.548 99.3872 92.56C99.6632 92.572 100.047 92.578 100.539 92.578ZM109.915 94V81.526H117.529V83.02H111.661V86.728H116.881V88.186H111.661V92.506H117.979V94H109.915ZM8.51577 115V102.526H16.0398V104.02H10.2618V107.782H15.3918V109.258H10.2618V115H8.51577ZM22.8277 115.27C22.0117 115.27 21.3037 115.144 20.7037 114.892C20.1037 114.64 19.6117 114.298 19.2277 113.866C18.8437 113.422 18.5557 112.9 18.3637 112.3C18.1837 111.7 18.0937 111.052 18.0937 110.356V102.526H19.8397V110.158C19.8397 111.406 20.1157 112.312 20.6677 112.876C21.2197 113.44 21.9397 113.722 22.8277 113.722C23.2717 113.722 23.6737 113.656 24.0337 113.524C24.4057 113.38 24.7237 113.164 24.9877 112.876C25.2517 112.588 25.4557 112.222 25.5997 111.778C25.7437 111.322 25.8157 110.782 25.8157 110.158V102.526H27.5617V110.356C27.5617 111.052 27.4657 111.7 27.2737 112.3C27.0937 112.9 26.8057 113.422 26.4097 113.866C26.0257 114.298 25.5337 114.64 24.9337 114.892C24.3457 115.144 23.6437 115.27 22.8277 115.27ZM36.6783 109.78C36.8703 110.02 37.1103 110.338 37.3983 110.734C37.6983 111.118 38.0043 111.55 38.3163 112.03C38.6283 112.498 38.9343 112.99 39.2343 113.506C39.5463 114.022 39.8103 114.52 40.0263 115H38.1183C37.8783 114.544 37.6143 114.082 37.3263 113.614C37.0503 113.146 36.7683 112.702 36.4803 112.282C36.1923 111.85 35.9043 111.448 35.6163 111.076C35.3403 110.704 35.0883 110.38 34.8603 110.104C34.7043 110.116 34.5423 110.122 34.3743 110.122C34.2183 110.122 34.0563 110.122 33.8883 110.122H32.3223V115H30.5763V102.706C31.0683 102.586 31.6143 102.508 32.2143 102.472C32.8263 102.424 33.3843 102.4 33.8883 102.4C35.6403 102.4 36.9723 102.73 37.8843 103.39C38.8083 104.05 39.2703 105.034 39.2703 106.342C39.2703 107.17 39.0483 107.878 38.6043 108.466C38.1723 109.054 37.5303 109.492 36.6783 109.78ZM34.0323 103.93C33.2883 103.93 32.7183 103.948 32.3223 103.984V108.682H33.5643C34.1643 108.682 34.7043 108.652 35.1843 108.592C35.6643 108.532 36.0663 108.418 36.3903 108.25C36.7263 108.082 36.9843 107.848 37.1643 107.548C37.3443 107.236 37.4343 106.828 37.4343 106.324C37.4343 105.856 37.3443 105.466 37.1643 105.154C36.9843 104.842 36.7383 104.596 36.4263 104.416C36.1263 104.236 35.7663 104.11 35.3463 104.038C34.9383 103.966 34.5003 103.93 34.0323 103.93ZM50.4466 115C50.1826 114.556 49.8766 114.058 49.5286 113.506C49.1926 112.954 48.8266 112.384 48.4306 111.796C48.0346 111.196 47.6206 110.59 47.1886 109.978C46.7686 109.366 46.3486 108.778 45.9286 108.214C45.5086 107.638 45.1006 107.098 44.7046 106.594C44.3086 106.09 43.9426 105.646 43.6066 105.262V115H41.8966V102.526H43.2826C43.8466 103.126 44.4466 103.828 45.0826 104.632C45.7306 105.424 46.3666 106.246 46.9906 107.098C47.6266 107.938 48.2206 108.766 48.7726 109.582C49.3366 110.398 49.8106 111.124 50.1946 111.76V102.526H51.9046V115H50.4466ZM54.9923 102.526H56.7383V115H54.9923V102.526ZM68.1603 102.526V104.038H64.2363V115H62.4903V104.038H58.5663V102.526H68.1603ZM74.6481 115.27C73.8321 115.27 73.1241 115.144 72.5241 114.892C71.9241 114.64 71.4321 114.298 71.0481 113.866C70.6641 113.422 70.3761 112.9 70.1841 112.3C70.0041 111.7 69.9141 111.052 69.9141 110.356V102.526H71.6601V110.158C71.6601 111.406 71.9361 112.312 72.4881 112.876C73.0401 113.44 73.7601 113.722 74.6481 113.722C75.0921 113.722 75.4941 113.656 75.8541 113.524C76.2261 113.38 76.5441 113.164 76.8081 112.876C77.0721 112.588 77.2761 112.222 77.4201 111.778C77.5641 111.322 77.6361 110.782 77.6361 110.158V102.526H79.3821V110.356C79.3821 111.052 79.2861 111.7 79.0941 112.3C78.9141 112.9 78.6261 113.422 78.2301 113.866C77.8461 114.298 77.3541 114.64 76.7541 114.892C76.1661 115.144 75.4641 115.27 74.6481 115.27ZM88.4986 109.78C88.6906 110.02 88.9306 110.338 89.2186 110.734C89.5186 111.118 89.8246 111.55 90.1366 112.03C90.4486 112.498 90.7546 112.99 91.0546 113.506C91.3666 114.022 91.6306 114.52 91.8466 115H89.9386C89.6986 114.544 89.4346 114.082 89.1466 113.614C88.8706 113.146 88.5886 112.702 88.3006 112.282C88.0126 111.85 87.7246 111.448 87.4366 111.076C87.1606 110.704 86.9086 110.38 86.6806 110.104C86.5246 110.116 86.3626 110.122 86.1946 110.122C86.0386 110.122 85.8766 110.122 85.7086 110.122H84.1426V115H82.3966V102.706C82.8886 102.586 83.4346 102.508 84.0346 102.472C84.6466 102.424 85.2046 102.4 85.7086 102.4C87.4606 102.4 88.7926 102.73 89.7046 103.39C90.6286 104.05 91.0906 105.034 91.0906 106.342C91.0906 107.17 90.8686 107.878 90.4246 108.466C89.9926 109.054 89.3506 109.492 88.4986 109.78ZM85.8526 103.93C85.1086 103.93 84.5386 103.948 84.1426 103.984V108.682H85.3846C85.9846 108.682 86.5246 108.652 87.0046 108.592C87.4846 108.532 87.8866 108.418 88.2106 108.25C88.5466 108.082 88.8046 107.848 88.9846 107.548C89.1646 107.236 89.2546 106.828 89.2546 106.324C89.2546 105.856 89.1646 105.466 88.9846 105.154C88.8046 104.842 88.5586 104.596 88.2466 104.416C87.9466 104.236 87.5866 104.11 87.1666 104.038C86.7586 103.966 86.3206 103.93 85.8526 103.93ZM93.7169 115V102.526H101.331V104.02H95.4629V107.728H100.683V109.186H95.4629V113.506H101.781V115H93.7169ZM106.898 113.758C108.722 113.758 109.634 113.134 109.634 111.886C109.634 111.502 109.55 111.178 109.382 110.914C109.226 110.638 109.01 110.404 108.734 110.212C108.458 110.008 108.14 109.834 107.78 109.69C107.432 109.546 107.06 109.402 106.664 109.258C106.208 109.102 105.776 108.928 105.368 108.736C104.96 108.532 104.606 108.298 104.306 108.034C104.006 107.758 103.766 107.434 103.586 107.062C103.418 106.69 103.334 106.24 103.334 105.712C103.334 104.62 103.706 103.768 104.45 103.156C105.194 102.544 106.22 102.238 107.528 102.238C108.284 102.238 108.968 102.322 109.58 102.49C110.204 102.646 110.66 102.82 110.948 103.012L110.39 104.434C110.138 104.278 109.76 104.128 109.256 103.984C108.764 103.828 108.188 103.75 107.528 103.75C107.192 103.75 106.88 103.786 106.592 103.858C106.304 103.93 106.052 104.038 105.836 104.182C105.62 104.326 105.446 104.512 105.314 104.74C105.194 104.956 105.134 105.214 105.134 105.514C105.134 105.85 105.2 106.132 105.332 106.36C105.464 106.588 105.65 106.792 105.89 106.972C106.13 107.14 106.406 107.296 106.718 107.44C107.042 107.584 107.396 107.728 107.78 107.872C108.32 108.088 108.812 108.304 109.256 108.52C109.712 108.736 110.102 108.994 110.426 109.294C110.762 109.594 111.02 109.954 111.2 110.374C111.38 110.782 111.47 111.28 111.47 111.868C111.47 112.96 111.068 113.8 110.264 114.388C109.472 114.976 108.35 115.27 106.898 115.27C106.406 115.27 105.95 115.234 105.53 115.162C105.122 115.102 104.756 115.03 104.432 114.946C104.108 114.85 103.826 114.754 103.586 114.658C103.358 114.55 103.178 114.46 103.046 114.388L103.568 112.948C103.844 113.104 104.264 113.278 104.828 113.47C105.392 113.662 106.082 113.758 106.898 113.758Z" fill="black"/>
<line x1="60.5" y1="1" x2="60.5" y2="74" stroke="black"/>
<line x1="5" y1="0.5" x2="61" y2="0.5" stroke="black"/>
</svg>
