<svg width="76" height="61" viewBox="0 0 76 61" fill="none" xmlns="http://www.w3.org/2000/svg">
<path d="M47.75 23H28.25C27.8281 23 27.5 23.375 27.5 23.75V25.25C27.5 25.6719 27.8281 26 28.25 26H47.75C48.125 26 48.5 25.6719 48.5 25.25V23.75C48.5 23.375 48.125 23 47.75 23ZM50.75 8C49.4844 8 48.5 9.03125 48.5 10.25C48.5 10.625 48.5469 10.9062 48.6875 11.1875L45.3125 13.25C44.5625 13.6719 43.625 13.4375 43.2031 12.6875L39.4062 5.98438C39.9219 5.60938 40.25 4.95312 40.25 4.25C40.25 3.03125 39.2188 2 38 2C36.7344 2 35.75 3.03125 35.75 4.25C35.75 4.95312 36.0781 5.60938 36.5469 5.98438L32.75 12.6875C32.3281 13.4375 31.3906 13.6719 30.6875 13.25L27.2656 11.1875C27.4062 10.9062 27.5 10.625 27.5 10.25C27.5 9.03125 26.4688 8 25.25 8C23.9844 8 23 9.03125 23 10.25C23 11.5156 23.9844 12.5 25.25 12.5C25.3438 12.5 25.4844 12.5 25.5781 12.5L29 21.5H47L50.375 12.5C50.4688 12.5 50.6094 12.5 50.75 12.5C51.9688 12.5 53 11.5156 53 10.25C53 9.03125 51.9688 8 50.75 8Z" fill="white"/>
<path d="M8.334 36.546C8.334 35.382 8.046 34.518 7.47 33.954C6.906 33.378 6.168 33.09 5.256 33.09C5.04 33.09 4.836 33.096 4.644 33.108C4.452 33.12 4.26 33.144 4.068 33.18V39.876C4.224 39.912 4.41 39.942 4.626 39.966C4.854 39.978 5.07 39.984 5.274 39.984C6.21 39.984 6.954 39.702 7.506 39.138C8.058 38.562 8.334 37.698 8.334 36.546ZM11.25 36.51C11.25 37.47 11.106 38.31 10.818 39.03C10.53 39.75 10.122 40.35 9.594 40.83C9.078 41.31 8.448 41.67 7.704 41.91C6.972 42.15 6.156 42.27 5.256 42.27C5.052 42.27 4.818 42.264 4.554 42.252C4.302 42.24 4.038 42.216 3.762 42.18C3.498 42.156 3.228 42.114 2.952 42.054C2.676 42.006 2.424 41.94 2.196 41.856C1.572 41.628 1.26 41.22 1.26 40.632V32.064C1.26 31.824 1.32 31.638 1.44 31.506C1.572 31.374 1.758 31.266 1.998 31.182C2.49 31.026 3.012 30.924 3.564 30.876C4.116 30.828 4.62 30.804 5.076 30.804C6 30.804 6.84 30.918 7.596 31.146C8.352 31.374 9 31.728 9.54 32.208C10.08 32.676 10.5 33.27 10.8 33.99C11.1 34.698 11.25 35.538 11.25 36.51ZM15.2835 38.814C15.4515 39.318 15.7455 39.678 16.1655 39.894C16.5855 40.098 17.0715 40.2 17.6235 40.2C18.1275 40.2 18.6015 40.134 19.0455 40.002C19.4895 39.858 19.8495 39.702 20.1255 39.534C20.3055 39.654 20.4555 39.81 20.5755 40.002C20.6955 40.194 20.7555 40.404 20.7555 40.632C20.7555 40.908 20.6715 41.148 20.5035 41.352C20.3355 41.556 20.1015 41.73 19.8015 41.874C19.5135 42.006 19.1655 42.102 18.7575 42.162C18.3615 42.234 17.9235 42.27 17.4435 42.27C16.7355 42.27 16.0815 42.174 15.4815 41.982C14.8815 41.778 14.3655 41.484 13.9335 41.1C13.5015 40.704 13.1595 40.212 12.9075 39.624C12.6675 39.036 12.5475 38.346 12.5475 37.554C12.5475 36.786 12.6675 36.12 12.9075 35.556C13.1595 34.992 13.4895 34.524 13.8975 34.152C14.3175 33.78 14.7915 33.51 15.3195 33.342C15.8595 33.162 16.4115 33.072 16.9755 33.072C17.5875 33.072 18.1455 33.168 18.6495 33.36C19.1655 33.54 19.6035 33.798 19.9635 34.134C20.3355 34.47 20.6235 34.872 20.8275 35.34C21.0315 35.808 21.1335 36.318 21.1335 36.87C21.1335 37.254 21.0315 37.542 20.8275 37.734C20.6235 37.926 20.3355 38.052 19.9635 38.112L15.2835 38.814ZM16.9935 35.106C16.4775 35.106 16.0455 35.268 15.6975 35.592C15.3615 35.904 15.1635 36.36 15.1035 36.96L18.5415 36.402C18.5175 36.09 18.3795 35.796 18.1275 35.52C17.8755 35.244 17.4975 35.106 16.9935 35.106ZM29.8266 39.462C29.8266 40.35 29.4966 41.046 28.8366 41.55C28.1766 42.042 27.2046 42.288 25.9206 42.288C25.4166 42.288 24.9546 42.252 24.5346 42.18C24.1266 42.108 23.7726 42 23.4726 41.856C23.1726 41.712 22.9386 41.532 22.7706 41.316C22.6026 41.1 22.5186 40.848 22.5186 40.56C22.5186 40.296 22.5726 40.074 22.6806 39.894C22.7886 39.702 22.9266 39.546 23.0946 39.426C23.4426 39.63 23.8386 39.81 24.2826 39.966C24.7266 40.122 25.2426 40.2 25.8306 40.2C26.6826 40.2 27.1086 39.96 27.1086 39.48C27.1086 39.276 27.0306 39.12 26.8746 39.012C26.7306 38.904 26.4786 38.808 26.1186 38.724L25.3986 38.562C24.4146 38.358 23.6826 38.046 23.2026 37.626C22.7226 37.194 22.4826 36.594 22.4826 35.826C22.4826 34.974 22.8246 34.302 23.5086 33.81C24.2046 33.306 25.1346 33.054 26.2986 33.054C26.7306 33.054 27.1386 33.09 27.5226 33.162C27.9066 33.222 28.2366 33.318 28.5126 33.45C28.7886 33.582 29.0046 33.75 29.1606 33.954C29.3286 34.146 29.4126 34.374 29.4126 34.638C29.4126 34.878 29.3646 35.094 29.2686 35.286C29.1726 35.466 29.0466 35.616 28.8906 35.736C28.7946 35.676 28.6506 35.61 28.4586 35.538C28.2786 35.466 28.0806 35.4 27.8646 35.34C27.6486 35.28 27.4206 35.232 27.1806 35.196C26.9406 35.16 26.7186 35.142 26.5146 35.142C26.0946 35.142 25.7646 35.202 25.5246 35.322C25.2966 35.43 25.1826 35.598 25.1826 35.826C25.1826 35.994 25.2486 36.126 25.3806 36.222C25.5126 36.318 25.7526 36.408 26.1006 36.492L26.7846 36.654C27.8766 36.894 28.6566 37.242 29.1246 37.698C29.5926 38.154 29.8266 38.742 29.8266 39.462ZM34.2617 41.982C34.1417 42.018 33.9737 42.048 33.7577 42.072C33.5417 42.108 33.3017 42.126 33.0377 42.126C32.4977 42.126 32.1077 42.042 31.8677 41.874C31.6397 41.694 31.5257 41.352 31.5257 40.848V33.45C31.6457 33.414 31.8137 33.378 32.0297 33.342C32.2457 33.306 32.4857 33.288 32.7497 33.288C33.2897 33.288 33.6737 33.378 33.9017 33.558C34.1417 33.738 34.2617 34.08 34.2617 34.584V41.982ZM31.3637 30.858C31.3637 30.45 31.5017 30.102 31.7777 29.814C32.0657 29.526 32.4377 29.382 32.8937 29.382C33.3497 29.382 33.7157 29.526 33.9917 29.814C34.2797 30.102 34.4237 30.45 34.4237 30.858C34.4237 31.278 34.2797 31.632 33.9917 31.92C33.7157 32.208 33.3497 32.352 32.8937 32.352C32.4377 32.352 32.0657 32.208 31.7777 31.92C31.5017 31.632 31.3637 31.278 31.3637 30.858ZM41.8112 41.298C41.5712 41.406 41.3012 41.496 41.0012 41.568C40.7012 41.628 40.3592 41.658 39.9752 41.658C39.4352 41.658 38.9192 41.586 38.4272 41.442C37.9472 41.286 37.5272 41.04 37.1672 40.704C36.8072 40.368 36.5192 39.93 36.3032 39.39C36.0872 38.85 35.9792 38.19 35.9792 37.41C35.9792 36.702 36.0872 36.078 36.3032 35.538C36.5192 34.998 36.8252 34.548 37.2212 34.188C37.6292 33.816 38.1092 33.54 38.6612 33.36C39.2252 33.168 39.8492 33.072 40.5332 33.072C41.2052 33.072 41.8172 33.162 42.3692 33.342C42.9332 33.51 43.3712 33.696 43.6832 33.9C43.9112 34.056 44.0912 34.236 44.2232 34.44C44.3552 34.632 44.4212 34.878 44.4212 35.178V41.964C44.4212 42.588 44.3072 43.128 44.0792 43.584C43.8512 44.04 43.5332 44.412 43.1252 44.7C42.7292 45 42.2612 45.222 41.7212 45.366C41.1812 45.51 40.5992 45.582 39.9752 45.582C39.3272 45.582 38.7632 45.528 38.2832 45.42C37.8152 45.312 37.4432 45.174 37.1672 45.006C36.7592 44.718 36.5552 44.334 36.5552 43.854C36.5552 43.602 36.6092 43.368 36.7172 43.152C36.8252 42.948 36.9452 42.798 37.0772 42.702C37.4132 42.894 37.7972 43.056 38.2292 43.188C38.6732 43.332 39.1412 43.404 39.6332 43.404C40.3052 43.404 40.8332 43.284 41.2172 43.044C41.6132 42.816 41.8112 42.432 41.8112 41.892V41.298ZM40.4612 39.588C40.7492 39.588 40.9952 39.552 41.1992 39.48C41.4152 39.408 41.6072 39.312 41.7752 39.192V35.502C41.6312 35.442 41.4692 35.382 41.2892 35.322C41.1212 35.262 40.9052 35.232 40.6412 35.232C40.0652 35.232 39.5972 35.412 39.2372 35.772C38.8892 36.12 38.7152 36.672 38.7152 37.428C38.7152 37.836 38.7572 38.178 38.8412 38.454C38.9372 38.73 39.0632 38.952 39.2192 39.12C39.3752 39.288 39.5552 39.408 39.7592 39.48C39.9752 39.552 40.2092 39.588 40.4612 39.588ZM52.0455 36.474C52.0455 36.054 51.9195 35.742 51.6675 35.538C51.4155 35.334 51.0795 35.232 50.6595 35.232C50.3715 35.232 50.1075 35.268 49.8675 35.34C49.6275 35.412 49.4055 35.502 49.2015 35.61V41.982C49.0815 42.018 48.9135 42.048 48.6975 42.072C48.4815 42.108 48.2415 42.126 47.9775 42.126C47.4375 42.126 47.0475 42.042 46.8075 41.874C46.5675 41.694 46.4475 41.352 46.4475 40.848V35.286C46.4475 34.974 46.5135 34.722 46.6455 34.53C46.7775 34.338 46.9635 34.158 47.2035 33.99C47.5875 33.714 48.0795 33.492 48.6795 33.324C49.2915 33.156 49.9635 33.072 50.6955 33.072C52.0035 33.072 53.0115 33.36 53.7195 33.936C54.4395 34.512 54.7995 35.334 54.7995 36.402V41.982C54.6675 42.018 54.4935 42.048 54.2775 42.072C54.0615 42.108 53.8215 42.126 53.5575 42.126C53.0175 42.126 52.6275 42.042 52.3875 41.874C52.1595 41.694 52.0455 41.352 52.0455 40.848V36.474ZM67.7441 36.528C67.7441 37.464 67.6001 38.292 67.3121 39.012C67.0361 39.732 66.6461 40.338 66.1421 40.83C65.6381 41.31 65.0441 41.676 64.3601 41.928C63.6761 42.18 62.9321 42.306 62.1281 42.306C61.3241 42.306 60.5801 42.18 59.8961 41.928C59.2121 41.676 58.6181 41.31 58.1141 40.83C57.6221 40.338 57.2321 39.732 56.9441 39.012C56.6681 38.292 56.5301 37.464 56.5301 36.528C56.5301 35.592 56.6741 34.77 56.9621 34.062C57.2501 33.342 57.6461 32.742 58.1501 32.262C58.6541 31.77 59.2421 31.398 59.9141 31.146C60.5981 30.894 61.3361 30.768 62.1281 30.768C62.9201 30.768 63.6581 30.894 64.3421 31.146C65.0261 31.398 65.6201 31.77 66.1241 32.262C66.6281 32.742 67.0241 33.342 67.3121 34.062C67.6001 34.77 67.7441 35.592 67.7441 36.528ZM64.8281 36.528C64.8281 35.376 64.5821 34.512 64.0901 33.936C63.6101 33.348 62.9561 33.054 62.1281 33.054C61.3121 33.054 60.6581 33.348 60.1661 33.936C59.6741 34.512 59.4281 35.376 59.4281 36.528C59.4281 37.692 59.6681 38.568 60.1481 39.156C60.6401 39.732 61.3001 40.02 62.1281 40.02C62.9561 40.02 63.6101 39.732 64.0901 39.156C64.5821 38.568 64.8281 37.692 64.8281 36.528ZM61.6421 28.608C61.6421 28.992 61.5101 29.316 61.2461 29.58C60.9941 29.832 60.6581 29.958 60.2381 29.958C59.8181 29.958 59.4821 29.832 59.2301 29.58C58.9781 29.316 58.8521 28.992 58.8521 28.608C58.8521 28.224 58.9781 27.9 59.2301 27.636C59.4821 27.36 59.8181 27.222 60.2381 27.222C60.6581 27.222 60.9941 27.36 61.2461 27.636C61.5101 27.9 61.6421 28.224 61.6421 28.608ZM65.3681 28.608C65.3681 28.992 65.2421 29.316 64.9901 29.58C64.7381 29.832 64.4021 29.958 63.9821 29.958C63.5621 29.958 63.2201 29.832 62.9561 29.58C62.7041 29.316 62.5781 28.992 62.5781 28.608C62.5781 28.224 62.7041 27.9 62.9561 27.636C63.2201 27.36 63.5621 27.222 63.9821 27.222C64.4021 27.222 64.7381 27.36 64.9901 27.636C65.2421 27.9 65.3681 28.224 65.3681 28.608ZM72.1936 41.982C72.0736 42.018 71.9056 42.048 71.6896 42.072C71.4736 42.108 71.2336 42.126 70.9696 42.126C70.4296 42.126 70.0396 42.042 69.7996 41.874C69.5596 41.694 69.4396 41.352 69.4396 40.848V35.358C69.4396 35.022 69.5236 34.734 69.6916 34.494C69.8596 34.254 70.0936 34.044 70.3936 33.864C70.7896 33.624 71.2636 33.438 71.8156 33.306C72.3796 33.162 72.9676 33.09 73.5796 33.09C74.8276 33.09 75.4516 33.51 75.4516 34.35C75.4516 34.554 75.4216 34.74 75.3616 34.908C75.3016 35.076 75.2356 35.22 75.1636 35.34C74.8876 35.28 74.5516 35.25 74.1556 35.25C73.8076 35.25 73.4596 35.292 73.1116 35.376C72.7636 35.46 72.4576 35.574 72.1936 35.718V41.982Z" fill="white"/>
<path d="M55.8281 43.8H75.7216V44.7H55.8281V43.8Z" fill="white"/>
</svg>
