<svg width="60" height="48" viewBox="0 0 60 48" fill="none" xmlns="http://www.w3.org/2000/svg">
<path d="M49.5 42H10.5C9.65625 42 9 42.75 9 43.5V46.5C9 47.3438 9.65625 48 10.5 48H49.5C50.25 48 51 47.3438 51 46.5V43.5C51 42.75 50.25 42 49.5 42ZM55.5 12C52.9688 12 51 14.0625 51 16.5C51 17.25 51.0938 17.8125 51.375 18.375L44.625 22.5C43.125 23.3438 41.25 22.875 40.4062 21.375L32.8125 7.96875C33.8438 7.21875 34.5 5.90625 34.5 4.5C34.5 2.0625 32.4375 0 30 0C27.4688 0 25.5 2.0625 25.5 4.5C25.5 5.90625 26.1562 7.21875 27.0938 7.96875L19.5 21.375C18.6562 22.875 16.7812 23.3438 15.375 22.5L8.53125 18.375C8.8125 17.8125 9 17.25 9 16.5C9 14.0625 6.9375 12 4.5 12C1.96875 12 0 14.0625 0 16.5C0 19.0312 1.96875 21 4.5 21C4.6875 21 4.96875 21 5.15625 21L12 39H48L54.75 21C54.9375 21 55.2188 21 55.5 21C57.9375 21 60 19.0312 60 16.5C60 14.0625 57.9375 12 55.5 12Z" fill="white"/>
</svg>
